# Blender 4.0.2
# www.blender.org
mtllib redirector.mtl
o Cone
v 0.000000 0.816733 -0.905219
v 0.159337 0.801040 -0.905219
v 0.312550 0.754563 -0.905219
v 0.453753 0.679089 -0.905219
v 0.577518 0.577518 -0.905219
v 0.679089 0.453753 -0.905219
v 0.754563 0.312550 -0.905219
v 0.801040 0.159337 -0.905219
v 0.816733 0.000000 -0.905219
v 0.801040 -0.159337 -0.905219
v 0.754563 -0.312550 -0.905219
v 0.679089 -0.453753 -0.905219
v 0.577518 -0.577518 -0.905219
v 0.453753 -0.679089 -0.905219
v 0.312550 -0.754563 -0.905219
v 0.159337 -0.801040 -0.905219
v 0.000000 -0.816733 -0.905219
v -0.159337 -0.801040 -0.905219
v -0.312550 -0.754563 -0.905219
v -0.453753 -0.679089 -0.905219
v -0.577518 -0.577518 -0.905219
v -0.679089 -0.453753 -0.905219
v -0.754563 -0.312550 -0.905219
v -0.801040 -0.159337 -0.905219
v -0.816733 0.000000 -0.905219
v -0.801040 0.159337 -0.905219
v -0.754563 0.312550 -0.905219
v -0.679089 0.453753 -0.905219
v -0.577518 0.577518 -0.905219
v -0.453753 0.679089 -0.905219
v -0.312550 0.754563 -0.905219
v -0.159337 0.801040 -0.905219
v 0.000000 -0.000000 1.000000
v 0.000000 1.000000 -1.000000
v 0.195090 0.980785 -1.000000
v 0.382683 0.923880 -1.000000
v 0.555570 0.831470 -1.000000
v 0.707107 0.707107 -1.000000
v 0.831470 0.555570 -1.000000
v 0.923880 0.382683 -1.000000
v 0.980785 0.195090 -1.000000
v 1.000000 0.000000 -1.000000
v 0.980785 -0.195090 -1.000000
v 0.923880 -0.382683 -1.000000
v 0.831470 -0.555570 -1.000000
v 0.707107 -0.707107 -1.000000
v 0.555570 -0.831470 -1.000000
v 0.382683 -0.923879 -1.000000
v 0.195090 -0.980785 -1.000000
v 0.000000 -1.000000 -1.000000
v -0.195090 -0.980785 -1.000000
v -0.382683 -0.923879 -1.000000
v -0.555570 -0.831470 -1.000000
v -0.707107 -0.707107 -1.000000
v -0.831470 -0.555570 -1.000000
v -0.923880 -0.382683 -1.000000
v -0.980785 -0.195090 -1.000000
v -1.000000 0.000000 -1.000000
v -0.980785 0.195090 -1.000000
v -0.923880 0.382683 -1.000000
v -0.831470 0.555570 -1.000000
v -0.707107 0.707107 -1.000000
v -0.555570 0.831470 -1.000000
v -0.382683 0.923880 -1.000000
v -0.195090 0.980785 -1.000000
vn 0.0878 0.8910 0.4455
vn 0.2599 0.8567 0.4455
vn 0.4220 0.7896 0.4455
vn 0.5680 0.6921 0.4455
vn 0.6921 0.5680 0.4455
vn 0.7896 0.4220 0.4455
vn 0.8567 0.2599 0.4455
vn 0.8910 0.0878 0.4455
vn 0.8910 -0.0878 0.4455
vn 0.8567 -0.2599 0.4455
vn 0.7896 -0.4220 0.4455
vn 0.6921 -0.5680 0.4455
vn 0.5680 -0.6921 0.4455
vn 0.4220 -0.7896 0.4455
vn 0.2599 -0.8567 0.4455
vn 0.0878 -0.8910 0.4455
vn -0.0878 -0.8910 0.4455
vn -0.2599 -0.8567 0.4455
vn -0.4220 -0.7896 0.4455
vn -0.5680 -0.6921 0.4455
vn -0.6921 -0.5680 0.4455
vn -0.7896 -0.4220 0.4455
vn -0.8567 -0.2599 0.4455
vn -0.8910 -0.0878 0.4455
vn -0.8910 0.0878 0.4455
vn -0.8567 0.2599 0.4455
vn -0.7896 0.4220 0.4455
vn -0.6921 0.5680 0.4455
vn -0.5680 0.6921 0.4455
vn -0.4220 0.7896 0.4455
vn -0.0000 -0.0000 -1.0000
vn -0.2599 0.8567 0.4455
vn -0.0878 0.8910 0.4455
vn -0.0452 -0.4589 -0.8873
vn -0.1339 -0.4413 -0.8873
vn -0.2174 -0.4067 -0.8873
vn -0.2925 -0.3565 -0.8873
vn -0.3565 -0.2925 -0.8873
vn -0.4067 -0.2174 -0.8873
vn -0.4413 -0.1339 -0.8873
vn -0.4589 -0.0452 -0.8873
vn -0.4589 0.0452 -0.8873
vn -0.4413 0.1339 -0.8873
vn -0.4067 0.2174 -0.8873
vn -0.3565 0.2925 -0.8873
vn -0.2925 0.3565 -0.8873
vn -0.2174 0.4067 -0.8873
vn -0.1339 0.4413 -0.8873
vn -0.0452 0.4589 -0.8873
vn 0.0452 0.4589 -0.8873
vn 0.1339 0.4413 -0.8873
vn 0.2174 0.4067 -0.8873
vn 0.2925 0.3565 -0.8873
vn 0.3565 0.2925 -0.8873
vn 0.4067 0.2174 -0.8873
vn 0.4413 0.1339 -0.8873
vn 0.4589 0.0452 -0.8873
vn 0.4589 -0.0452 -0.8873
vn 0.4413 -0.1339 -0.8873
vn 0.4067 -0.2174 -0.8873
vn 0.3565 -0.2925 -0.8873
vn 0.2925 -0.3565 -0.8873
vn 0.2174 -0.4067 -0.8873
vn 0.1339 -0.4413 -0.8873
vn 0.0452 -0.4589 -0.8873
vt 0.250000 0.490000
vt 0.250000 0.250000
vt 0.296822 0.485388
vt 0.341844 0.471731
vt 0.383337 0.449553
vt 0.419706 0.419706
vt 0.449553 0.383337
vt 0.471731 0.341844
vt 0.485388 0.296822
vt 0.490000 0.250000
vt 0.485388 0.203178
vt 0.471731 0.158156
vt 0.449553 0.116663
vt 0.419706 0.080294
vt 0.383337 0.050447
vt 0.341844 0.028269
vt 0.296822 0.014612
vt 0.250000 0.010000
vt 0.203178 0.014612
vt 0.158156 0.028269
vt 0.116663 0.050447
vt 0.080294 0.080294
vt 0.050447 0.116663
vt 0.028269 0.158156
vt 0.014612 0.203178
vt 0.010000 0.250000
vt 0.014612 0.296822
vt 0.028269 0.341844
vt 0.050447 0.383337
vt 0.080294 0.419706
vt 0.116663 0.449553
vt 0.158156 0.471731
vt 0.750000 0.446016
vt 0.788241 0.442249
vt 0.825012 0.431095
vt 0.858901 0.412981
vt 0.888604 0.388604
vt 0.912981 0.358901
vt 0.931095 0.325012
vt 0.942250 0.288241
vt 0.946016 0.250000
vt 0.942250 0.211759
vt 0.931095 0.174988
vt 0.912981 0.141099
vt 0.888604 0.111396
vt 0.858901 0.087019
vt 0.825012 0.068905
vt 0.788241 0.057750
vt 0.750000 0.053984
vt 0.711759 0.057750
vt 0.674988 0.068905
vt 0.641099 0.087019
vt 0.611396 0.111396
vt 0.587019 0.141099
vt 0.568905 0.174988
vt 0.557750 0.211759
vt 0.553984 0.250000
vt 0.557750 0.288241
vt 0.568905 0.325012
vt 0.587019 0.358901
vt 0.611396 0.388604
vt 0.641099 0.412981
vt 0.674988 0.431095
vt 0.711759 0.442250
vt 0.203178 0.485388
vt 0.750000 0.490000
vt 0.796822 0.485388
vt 0.841844 0.471731
vt 0.883337 0.449553
vt 0.919706 0.419706
vt 0.949553 0.383337
vt 0.971731 0.341844
vt 0.985388 0.296822
vt 0.990000 0.250000
vt 0.985388 0.203178
vt 0.971731 0.158156
vt 0.949553 0.116663
vt 0.919706 0.080294
vt 0.883337 0.050447
vt 0.841844 0.028269
vt 0.796822 0.014612
vt 0.750000 0.010000
vt 0.703178 0.014612
vt 0.658156 0.028269
vt 0.616663 0.050447
vt 0.580294 0.080294
vt 0.550447 0.116663
vt 0.528269 0.158156
vt 0.514612 0.203178
vt 0.510000 0.250000
vt 0.514612 0.296822
vt 0.528269 0.341844
vt 0.550447 0.383337
vt 0.580294 0.419706
vt 0.616663 0.449553
vt 0.658156 0.471731
vt 0.703178 0.485388
s 0
usemtl redirectorbounceplate
f 1/33/31 2/34/31 3/35/31 4/36/31 5/37/31 6/38/31 7/39/31 8/40/31 9/41/31 10/42/31 11/43/31 12/44/31 13/45/31 14/46/31 15/47/31 16/48/31 17/49/31 18/50/31 19/51/31 20/52/31 21/53/31 22/54/31 23/55/31 24/56/31 25/57/31 26/58/31 27/59/31 28/60/31 29/61/31 30/62/31 31/63/31 32/64/31
usemtl redirectormetal
f 34/1/1 33/2/1 35/3/1
f 35/3/2 33/2/2 36/4/2
f 36/4/3 33/2/3 37/5/3
f 37/5/4 33/2/4 38/6/4
f 38/6/5 33/2/5 39/7/5
f 39/7/6 33/2/6 40/8/6
f 40/8/7 33/2/7 41/9/7
f 41/9/8 33/2/8 42/10/8
f 42/10/9 33/2/9 43/11/9
f 43/11/10 33/2/10 44/12/10
f 44/12/11 33/2/11 45/13/11
f 45/13/12 33/2/12 46/14/12
f 46/14/13 33/2/13 47/15/13
f 47/15/14 33/2/14 48/16/14
f 48/16/15 33/2/15 49/17/15
f 49/17/16 33/2/16 50/18/16
f 50/18/17 33/2/17 51/19/17
f 51/19/18 33/2/18 52/20/18
f 52/20/19 33/2/19 53/21/19
f 53/21/20 33/2/20 54/22/20
f 54/22/21 33/2/21 55/23/21
f 55/23/22 33/2/22 56/24/22
f 56/24/23 33/2/23 57/25/23
f 57/25/24 33/2/24 58/26/24
f 58/26/25 33/2/25 59/27/25
f 59/27/26 33/2/26 60/28/26
f 60/28/27 33/2/27 61/29/27
f 61/29/28 33/2/28 62/30/28
f 62/30/29 33/2/29 63/31/29
f 63/31/30 33/2/30 64/32/30
f 64/32/32 33/2/32 65/65/32
f 65/65/33 33/2/33 34/1/33
usemtl redirectorbounceplaterim
f 2/34/34 1/33/34 34/66/34 35/67/34
f 3/35/35 2/34/35 35/67/35 36/68/35
f 4/36/36 3/35/36 36/68/36 37/69/36
f 5/37/37 4/36/37 37/69/37 38/70/37
f 6/38/38 5/37/38 38/70/38 39/71/38
f 7/39/39 6/38/39 39/71/39 40/72/39
f 8/40/40 7/39/40 40/72/40 41/73/40
f 9/41/41 8/40/41 41/73/41 42/74/41
f 10/42/42 9/41/42 42/74/42 43/75/42
f 11/43/43 10/42/43 43/75/43 44/76/43
f 12/44/44 11/43/44 44/76/44 45/77/44
f 13/45/45 12/44/45 45/77/45 46/78/45
f 14/46/46 13/45/46 46/78/46 47/79/46
f 15/47/47 14/46/47 47/79/47 48/80/47
f 16/48/48 15/47/48 48/80/48 49/81/48
f 17/49/49 16/48/49 49/81/49 50/82/49
f 18/50/50 17/49/50 50/82/50 51/83/50
f 19/51/51 18/50/51 51/83/51 52/84/51
f 20/52/52 19/51/52 52/84/52 53/85/52
f 21/53/53 20/52/53 53/85/53 54/86/53
f 22/54/54 21/53/54 54/86/54 55/87/54
f 23/55/55 22/54/55 55/87/55 56/88/55
f 24/56/56 23/55/56 56/88/56 57/89/56
f 25/57/57 24/56/57 57/89/57 58/90/57
f 26/58/58 25/57/58 58/90/58 59/91/58
f 27/59/59 26/58/59 59/91/59 60/92/59
f 28/60/60 27/59/60 60/92/60 61/93/60
f 29/61/61 28/60/61 61/93/61 62/94/61
f 30/62/62 29/61/62 62/94/62 63/95/62
f 31/63/63 30/62/63 63/95/63 64/96/63
f 32/64/64 31/63/64 64/96/64 65/97/64
f 1/33/65 32/64/65 65/97/65 34/66/65
