# Blender 4.0.2
# www.blender.org
mtllib shrubbery.mtl
o Cube
v -0.462200 0.822301 0.977860
v -0.668586 0.568464 1.414504
v -0.462200 0.822301 -0.977860
v -0.668586 0.568464 -1.414504
v 0.462200 0.822301 0.977860
v 0.668586 0.568464 1.414504
v 0.462200 0.822301 -0.977860
v 0.668586 0.568464 -1.414504
v -0.558313 -0.822301 1.181204
v -0.668586 -0.686676 1.414504
v -0.668586 -0.686676 -1.414504
v -0.558313 -0.822301 -1.181204
v 0.668586 -0.686676 1.414504
v 0.558313 -0.822301 1.181204
v 0.668586 -0.686676 -1.414504
v 0.558313 -0.822301 -1.181204
v -0.358339 -1.267730 0.358339
v -0.358339 -0.551052 0.358339
v -0.358339 -1.267730 -0.358339
v -0.358339 -0.551052 -0.358339
v 0.358339 -1.267730 0.358339
v 0.358339 -0.551052 0.358339
v 0.358339 -1.267730 -0.358339
v 0.358339 -0.551052 -0.358339
vn -0.0000 1.0000 -0.0000
vn -0.0000 -0.0000 -1.0000
vn -0.0000 -0.0000 1.0000
vn 1.0000 -0.0000 -0.0000
vn -0.7759 0.6309 -0.0000
vn -0.0000 0.8645 -0.5026
vn 0.7759 0.6309 -0.0000
vn -0.0000 0.8645 0.5026
vn -1.0000 -0.0000 -0.0000
vn -0.7759 -0.6309 -0.0000
vn -0.0000 -0.8645 -0.5026
vn 0.7759 -0.6309 -0.0000
vn -0.0000 -0.8645 0.5026
vn -0.0000 -1.0000 -0.0000
vt 0.663586 0.538586
vt 0.836414 0.538586
vt 0.836414 0.711414
vt 0.663586 0.711414
vt 0.395617 0.250000
vt 0.586414 0.250000
vt 0.586414 0.500000
vt 0.395617 0.500000
vt 0.395617 0.750000
vt 0.586414 0.750000
vt 0.586414 1.000000
vt 0.395617 1.000000
vt 0.395617 0.500000
vt 0.395617 0.750000
vt 0.875000 0.500000
vt 0.875000 0.750000
vt 0.625000 0.500000
vt 0.625000 0.750000
vt 0.395617 0.000000
vt 0.586414 0.000000
vt 0.395617 0.250000
vt 0.145617 0.520617
vt 0.145617 0.729383
vt 0.125000 0.750000
vt 0.125000 0.500000
vt 0.354383 0.520617
vt 0.375000 0.500000
vt 0.354383 0.729383
vt 0.375000 0.750000
vt 0.375000 0.000000
vt 0.625000 0.000000
vt 0.625000 0.250000
vt 0.375000 0.250000
vt 0.625000 1.000000
vt 0.375000 1.000000
s 0
usemtl bushleaves
f 7/1/1 3/2/1 1/3/1 5/4/1
f 11/5/2 4/6/2 8/7/2 15/8/2
f 13/9/3 6/10/3 2/11/3 10/12/3
f 15/13/4 8/7/4 6/10/4 13/14/4
f 1/3/5 3/2/5 4/15/5 2/16/5
f 3/2/6 7/1/6 8/17/6 4/15/6
f 7/1/7 5/4/7 6/10/7 8/7/7
f 5/4/8 1/3/8 2/16/8 6/18/8
f 10/19/9 2/20/9 4/6/9 11/21/9
f 12/22/10 9/23/10 10/24/10 11/25/10
f 16/26/11 12/22/11 11/25/11 15/27/11
f 14/28/12 16/26/12 15/13/12 13/14/12
f 9/23/13 14/28/13 13/29/13 10/24/13
f 12/22/14 16/26/14 14/28/14 9/23/14
f 24/17/1 20/15/1 18/16/1 22/18/1
usemtl bushroot
f 17/30/9 18/31/9 20/32/9 19/33/9
f 19/33/2 20/32/2 24/17/2 23/27/2
f 23/27/4 24/17/4 22/18/4 21/29/4
f 21/29/3 22/18/3 18/34/3 17/35/3
f 19/25/14 23/27/14 21/29/14 17/24/14
