# Blender 4.0.2
# www.blender.org
mtllib trampoline.mtl
o Cylinder
v 0.000000 -0.050000 -1.000000
v 0.000000 0.050000 -0.904676
v 0.195090 -0.050000 -0.980785
v 0.176493 0.050000 -0.887293
v 0.382683 -0.050000 -0.923880
v 0.346204 0.050000 -0.835811
v 0.555570 -0.050000 -0.831470
v 0.502611 0.050000 -0.752210
v 0.707107 -0.050000 -0.707107
v 0.639702 0.050000 -0.639702
v 0.831470 -0.050000 -0.555570
v 0.752210 0.050000 -0.502611
v 0.923880 -0.050000 -0.382683
v 0.835811 0.050000 -0.346204
v 0.980785 -0.050000 -0.195090
v 0.887293 0.050000 -0.176493
v 1.000000 -0.050000 0.000000
v 0.904676 0.050000 0.000000
v 0.980785 -0.050000 0.195090
v 0.887293 0.050000 0.176493
v 0.923880 -0.050000 0.382683
v 0.835811 0.050000 0.346204
v 0.831470 -0.050000 0.555570
v 0.752210 0.050000 0.502611
v 0.707107 -0.050000 0.707107
v 0.639702 0.050000 0.639702
v 0.555570 -0.050000 0.831470
v 0.502611 0.050000 0.752210
v 0.382683 -0.050000 0.923880
v 0.346204 0.050000 0.835811
v 0.195090 -0.050000 0.980785
v 0.176493 0.050000 0.887293
v 0.000000 -0.050000 1.000000
v 0.000000 0.050000 0.904676
v -0.195090 -0.050000 0.980785
v -0.176493 0.050000 0.887293
v -0.382683 -0.050000 0.923880
v -0.346204 0.050000 0.835811
v -0.555570 -0.050000 0.831470
v -0.502611 0.050000 0.752210
v -0.707107 -0.050000 0.707107
v -0.639702 0.050000 0.639702
v -0.831470 -0.050000 0.555570
v -0.752210 0.050000 0.502611
v -0.923880 -0.050000 0.382683
v -0.835811 0.050000 0.346204
v -0.980785 -0.050000 0.195090
v -0.887293 0.050000 0.176493
v -1.000000 -0.050000 0.000000
v -0.904676 0.050000 0.000000
v -0.980785 -0.050000 -0.195090
v -0.887293 0.050000 -0.176493
v -0.923880 -0.050000 -0.382683
v -0.835811 0.050000 -0.346204
v -0.831470 -0.050000 -0.555570
v -0.752210 0.050000 -0.502611
v -0.707107 -0.050000 -0.707107
v -0.639702 0.050000 -0.639702
v -0.555570 -0.050000 -0.831470
v -0.502611 0.050000 -0.752210
v -0.382683 -0.050000 -0.923880
v -0.346204 0.050000 -0.835811
v -0.195090 -0.050000 -0.980785
v -0.176493 0.050000 -0.887293
v 0.195090 0.050000 -0.980785
v 0.000000 0.050000 -1.000000
v 0.382683 0.050000 -0.923880
v 0.555570 0.050000 -0.831470
v 0.707107 0.050000 -0.707107
v 0.831470 0.050000 -0.555570
v 0.923880 0.050000 -0.382683
v 0.980785 0.050000 -0.195090
v 1.000000 0.050000 0.000000
v 0.980785 0.050000 0.195090
v 0.923880 0.050000 0.382683
v 0.831470 0.050000 0.555570
v 0.707107 0.050000 0.707107
v 0.555570 0.050000 0.831470
v 0.382683 0.050000 0.923880
v 0.195090 0.050000 0.980785
v 0.000000 0.050000 1.000000
v -0.195090 0.050000 0.980785
v -0.382683 0.050000 0.923880
v -0.555570 0.050000 0.831470
v -0.707107 0.050000 0.707107
v -0.831470 0.050000 0.555570
v -0.923880 0.050000 0.382683
v -0.980785 0.050000 0.195090
v -1.000000 0.050000 0.000000
v -0.980785 0.050000 -0.195090
v -0.923880 0.050000 -0.382683
v -0.831470 0.050000 -0.555570
v -0.707107 0.050000 -0.707107
v -0.555570 0.050000 -0.831470
v -0.382683 0.050000 -0.923880
v -0.195090 0.050000 -0.980785
v 0.660000 -0.133464 0.634627
v 0.660000 -0.053464 0.634627
v 0.660000 -0.133464 -0.634627
v 0.660000 -0.053464 -0.634627
v 0.740000 -0.133464 0.634627
v 0.740000 -0.053464 0.634627
v 0.740000 -0.133464 -0.634627
v 0.740000 -0.053464 -0.634627
v 0.660000 -0.133464 0.000000
v 0.660000 -0.053464 0.000000
v 0.740000 -0.133464 0.000000
v 0.740000 -0.053464 0.000000
v 0.660000 -0.053464 -0.571164
v 0.740000 -0.133464 -0.571164
v 0.660000 -0.133464 -0.571164
v 0.740000 -0.053464 -0.571164
v 0.660000 -0.133464 0.571164
v 0.740000 -0.053464 0.571164
v 0.660000 -0.053464 0.571164
v 0.740000 -0.133464 0.571164
v 0.660000 -0.583465 0.571164
v 0.660000 -0.583465 0.634627
v 0.740000 -0.583465 -0.634627
v 0.660000 -0.583465 -0.634627
v 0.740000 -0.583465 -0.571164
v 0.740000 -0.583465 0.634627
v 0.660000 -0.583465 -0.571164
v 0.740000 -0.583465 0.571164
v -0.740000 -0.133464 0.634627
v -0.740000 -0.053464 0.634627
v -0.740000 -0.133464 -0.634627
v -0.740000 -0.053464 -0.634627
v -0.660000 -0.133464 0.634627
v -0.660000 -0.053464 0.634627
v -0.660000 -0.133464 -0.634627
v -0.660000 -0.053464 -0.634627
v -0.740000 -0.133464 0.000000
v -0.740000 -0.053464 0.000000
v -0.660000 -0.133464 0.000000
v -0.660000 -0.053464 0.000000
v -0.740000 -0.053464 -0.571164
v -0.660000 -0.133464 -0.571164
v -0.740000 -0.133464 -0.571164
v -0.660000 -0.053464 -0.571164
v -0.740000 -0.133464 0.571164
v -0.660000 -0.053464 0.571164
v -0.740000 -0.053464 0.571164
v -0.660000 -0.133464 0.571164
v -0.740000 -0.583465 0.571164
v -0.740000 -0.583465 0.634627
v -0.660000 -0.583465 -0.634627
v -0.740000 -0.583465 -0.634627
v -0.660000 -0.583465 -0.571164
v -0.660000 -0.583465 0.634627
v -0.740000 -0.583465 -0.571164
v -0.660000 -0.583465 0.571164
vn 0.0980 -0.0000 -0.9952
vn 0.2903 -0.0000 -0.9569
vn 0.4714 -0.0000 -0.8819
vn 0.6344 -0.0000 -0.7730
vn 0.7730 -0.0000 -0.6344
vn 0.8819 -0.0000 -0.4714
vn 0.9569 -0.0000 -0.2903
vn 0.9952 -0.0000 -0.0980
vn 0.9952 -0.0000 0.0980
vn 0.9569 -0.0000 0.2903
vn 0.8819 -0.0000 0.4714
vn 0.7730 -0.0000 0.6344
vn 0.6344 -0.0000 0.7730
vn 0.4714 -0.0000 0.8819
vn 0.2903 -0.0000 0.9569
vn 0.0980 -0.0000 0.9952
vn -0.0980 -0.0000 0.9952
vn -0.2903 -0.0000 0.9569
vn -0.4714 -0.0000 0.8819
vn -0.6344 -0.0000 0.7730
vn -0.7730 -0.0000 0.6344
vn -0.8819 -0.0000 0.4714
vn -0.9569 -0.0000 0.2903
vn -0.9952 -0.0000 0.0980
vn -0.9952 -0.0000 -0.0980
vn -0.9569 -0.0000 -0.2903
vn -0.8819 -0.0000 -0.4714
vn -0.7730 -0.0000 -0.6344
vn -0.6344 -0.0000 -0.7730
vn -0.4714 -0.0000 -0.8819
vn -0.0000 1.0000 -0.0000
vn -0.2903 -0.0000 -0.9569
vn -0.0980 -0.0000 -0.9952
vn -0.0000 -1.0000 -0.0000
vn -1.0000 -0.0000 -0.0000
vn -0.0000 -0.0000 -1.0000
vn 1.0000 -0.0000 -0.0000
vn -0.0000 -0.0000 1.0000
vt 1.000000 0.500000
vt 1.000000 1.000000
vt 0.968750 1.000000
vt 0.968750 0.500000
vt 0.937500 1.000000
vt 0.937500 0.500000
vt 0.906250 1.000000
vt 0.906250 0.500000
vt 0.875000 1.000000
vt 0.875000 0.500000
vt 0.843750 1.000000
vt 0.843750 0.500000
vt 0.812500 1.000000
vt 0.812500 0.500000
vt 0.781250 1.000000
vt 0.781250 0.500000
vt 0.750000 1.000000
vt 0.750000 0.500000
vt 0.718750 1.000000
vt 0.718750 0.500000
vt 0.687500 1.000000
vt 0.687500 0.500000
vt 0.656250 1.000000
vt 0.656250 0.500000
vt 0.625000 1.000000
vt 0.625000 0.500000
vt 0.593750 1.000000
vt 0.593750 0.500000
vt 0.562500 1.000000
vt 0.562500 0.500000
vt 0.531250 1.000000
vt 0.531250 0.500000
vt 0.500000 1.000000
vt 0.500000 0.500000
vt 0.468750 1.000000
vt 0.468750 0.500000
vt 0.437500 1.000000
vt 0.437500 0.500000
vt 0.406250 1.000000
vt 0.406250 0.500000
vt 0.375000 1.000000
vt 0.375000 0.500000
vt 0.343750 1.000000
vt 0.343750 0.500000
vt 0.312500 1.000000
vt 0.312500 0.500000
vt 0.281250 1.000000
vt 0.281250 0.500000
vt 0.250000 1.000000
vt 0.250000 0.500000
vt 0.218750 1.000000
vt 0.218750 0.500000
vt 0.187500 1.000000
vt 0.187500 0.500000
vt 0.156250 1.000000
vt 0.156250 0.500000
vt 0.125000 1.000000
vt 0.125000 0.500000
vt 0.093750 1.000000
vt 0.093750 0.500000
vt 0.062500 1.000000
vt 0.062500 0.500000
vt 0.292358 0.462950
vt 0.250000 0.467122
vt 0.207642 0.462950
vt 0.166911 0.450595
vt 0.129373 0.430530
vt 0.096471 0.403529
vt 0.069470 0.370627
vt 0.049405 0.333089
vt 0.037050 0.292358
vt 0.032878 0.250000
vt 0.037050 0.207642
vt 0.049405 0.166911
vt 0.069470 0.129373
vt 0.096471 0.096471
vt 0.129373 0.069470
vt 0.166911 0.049405
vt 0.207642 0.037050
vt 0.250000 0.032878
vt 0.292358 0.037050
vt 0.333089 0.049405
vt 0.370627 0.069470
vt 0.403528 0.096471
vt 0.430530 0.129373
vt 0.450595 0.166911
vt 0.462950 0.207642
vt 0.467122 0.250000
vt 0.462950 0.292358
vt 0.450595 0.333089
vt 0.430530 0.370627
vt 0.403529 0.403529
vt 0.370627 0.430530
vt 0.333089 0.450595
vt 0.031250 1.000000
vt 0.031250 0.500000
vt 0.000000 1.000000
vt 0.000000 0.500000
vt 0.750000 0.490000
vt 0.796822 0.485388
vt 0.841844 0.471731
vt 0.883337 0.449553
vt 0.919706 0.419706
vt 0.949553 0.383337
vt 0.971731 0.341844
vt 0.985388 0.296822
vt 0.990000 0.250000
vt 0.985388 0.203178
vt 0.971731 0.158156
vt 0.949553 0.116663
vt 0.919706 0.080294
vt 0.883337 0.050447
vt 0.841844 0.028269
vt 0.796822 0.014612
vt 0.750000 0.010000
vt 0.703178 0.014612
vt 0.658156 0.028269
vt 0.616663 0.050447
vt 0.580294 0.080294
vt 0.550447 0.116663
vt 0.528269 0.158156
vt 0.514612 0.203178
vt 0.510000 0.250000
vt 0.514612 0.296822
vt 0.528269 0.341844
vt 0.550447 0.383337
vt 0.580294 0.419706
vt 0.616663 0.449553
vt 0.658156 0.471731
vt 0.703178 0.485388
vt 0.296822 0.485388
vt 0.250000 0.490000
vt 0.341844 0.471731
vt 0.383337 0.449553
vt 0.419706 0.419706
vt 0.449553 0.383337
vt 0.471731 0.341844
vt 0.485388 0.296822
vt 0.490000 0.250000
vt 0.485388 0.203178
vt 0.471731 0.158156
vt 0.449553 0.116663
vt 0.419706 0.080294
vt 0.383337 0.050447
vt 0.341844 0.028269
vt 0.296822 0.014612
vt 0.250000 0.010000
vt 0.203178 0.014612
vt 0.158156 0.028269
vt 0.116663 0.050447
vt 0.080294 0.080294
vt 0.050447 0.116663
vt 0.028269 0.158156
vt 0.014612 0.203178
vt 0.010000 0.250000
vt 0.014612 0.296822
vt 0.028269 0.341844
vt 0.050447 0.383337
vt 0.080294 0.419706
vt 0.116663 0.449553
vt 0.158156 0.471731
vt 0.203178 0.485388
vt 0.375000 0.237500
vt 0.625000 0.237500
vt 0.625000 0.250000
vt 0.375000 0.250000
vt 0.375000 0.737500
vt 0.625000 0.737500
vt 0.625000 0.750000
vt 0.375000 0.750000
vt 0.875000 0.737500
vt 0.875000 0.750000
vt 0.625000 0.512500
vt 0.875000 0.512500
vt 0.875000 0.625000
vt 0.625000 0.625000
vt 0.125000 0.512500
vt 0.375000 0.512500
vt 0.375000 0.625000
vt 0.125000 0.625000
vt 0.375000 0.012500
vt 0.625000 0.012500
vt 0.625000 0.125000
vt 0.375000 0.125000
vt 0.125000 0.737500
vt 0.375000 0.000000
vt 0.625000 0.000000
vt 0.125000 0.750000
s 0
usemtl tramppoline_guard
f 1/1/1 66/2/1 65/3/1 3/4/1
f 3/4/2 65/3/2 67/5/2 5/6/2
f 5/6/3 67/5/3 68/7/3 7/8/3
f 7/8/4 68/7/4 69/9/4 9/10/4
f 9/10/5 69/9/5 70/11/5 11/12/5
f 11/12/6 70/11/6 71/13/6 13/14/6
f 13/14/7 71/13/7 72/15/7 15/16/7
f 15/16/8 72/15/8 73/17/8 17/18/8
f 17/18/9 73/17/9 74/19/9 19/20/9
f 19/20/10 74/19/10 75/21/10 21/22/10
f 21/22/11 75/21/11 76/23/11 23/24/11
f 23/24/12 76/23/12 77/25/12 25/26/12
f 25/26/13 77/25/13 78/27/13 27/28/13
f 27/28/14 78/27/14 79/29/14 29/30/14
f 29/30/15 79/29/15 80/31/15 31/32/15
f 31/32/16 80/31/16 81/33/16 33/34/16
f 33/34/17 81/33/17 82/35/17 35/36/17
f 35/36/18 82/35/18 83/37/18 37/38/18
f 37/38/19 83/37/19 84/39/19 39/40/19
f 39/40/20 84/39/20 85/41/20 41/42/20
f 41/42/21 85/41/21 86/43/21 43/44/21
f 43/44/22 86/43/22 87/45/22 45/46/22
f 45/46/23 87/45/23 88/47/23 47/48/23
f 47/48/24 88/47/24 89/49/24 49/50/24
f 49/50/25 89/49/25 90/51/25 51/52/25
f 51/52/26 90/51/26 91/53/26 53/54/26
f 53/54/27 91/53/27 92/55/27 55/56/27
f 55/56/28 92/55/28 93/57/28 57/58/28
f 57/58/29 93/57/29 94/59/29 59/60/29
f 59/60/30 94/59/30 95/61/30 61/62/30
f 61/62/32 95/61/32 96/95/32 63/96/32
f 63/96/33 96/95/33 66/97/33 1/98/33
f 2/64/31 4/63/31 65/131/31 66/132/31
f 4/63/31 6/94/31 67/133/31 65/131/31
f 6/94/31 8/93/31 68/134/31 67/133/31
f 8/93/31 10/92/31 69/135/31 68/134/31
f 10/92/31 12/91/31 70/136/31 69/135/31
f 12/91/31 14/90/31 71/137/31 70/136/31
f 14/90/31 16/89/31 72/138/31 71/137/31
f 16/89/31 18/88/31 73/139/31 72/138/31
f 18/88/31 20/87/31 74/140/31 73/139/31
f 20/87/31 22/86/31 75/141/31 74/140/31
f 22/86/31 24/85/31 76/142/31 75/141/31
f 24/85/31 26/84/31 77/143/31 76/142/31
f 26/84/31 28/83/31 78/144/31 77/143/31
f 28/83/31 30/82/31 79/145/31 78/144/31
f 30/82/31 32/81/31 80/146/31 79/145/31
f 32/81/31 34/80/31 81/147/31 80/146/31
f 34/80/31 36/79/31 82/148/31 81/147/31
f 36/79/31 38/78/31 83/149/31 82/148/31
f 38/78/31 40/77/31 84/150/31 83/149/31
f 40/77/31 42/76/31 85/151/31 84/150/31
f 42/76/31 44/75/31 86/152/31 85/151/31
f 44/75/31 46/74/31 87/153/31 86/152/31
f 46/74/31 48/73/31 88/154/31 87/153/31
f 48/73/31 50/72/31 89/155/31 88/154/31
f 50/72/31 52/71/31 90/156/31 89/155/31
f 52/71/31 54/70/31 91/157/31 90/156/31
f 54/70/31 56/69/31 92/158/31 91/157/31
f 56/69/31 58/68/31 93/159/31 92/158/31
f 58/68/31 60/67/31 94/160/31 93/159/31
f 60/67/31 62/66/31 95/161/31 94/160/31
f 62/66/31 64/65/31 96/162/31 95/161/31
f 64/65/31 2/64/31 66/132/31 96/162/31
f 114/168/31 115/171/31 98/172/31 102/169/31
f 112/173/31 109/174/31 106/175/31 108/176/31
f 104/26/31 100/10/31 109/174/31 112/173/31
f 142/168/31 143/171/31 126/172/31 130/169/31
f 140/173/31 137/174/31 134/175/31 136/176/31
f 132/26/31 128/10/31 137/174/31 140/173/31
f 136/176/31 134/175/31 143/171/31 142/168/31
usemtl trampoline_mesh
f 4/63/31 2/64/31 64/65/31 62/66/31 60/67/31 58/68/31 56/69/31 54/70/31 52/71/31 50/72/31 48/73/31 46/74/31 44/75/31 42/76/31 40/77/31 38/78/31 36/79/31 34/80/31 32/81/31 30/82/31 28/83/31 26/84/31 24/85/31 22/86/31 20/87/31 18/88/31 16/89/31 14/90/31 12/91/31 10/92/31 8/93/31 6/94/31
usemtl trampline_struts
f 1/99/34 3/100/34 5/101/34 7/102/34 9/103/34 11/104/34 13/105/34 15/106/34 17/107/34 19/108/34 21/109/34 23/110/34 25/111/34 27/112/34 29/113/34 31/114/34 33/115/34 35/116/34 37/117/34 39/118/34 41/119/34 43/120/34 45/121/34 47/122/34 49/123/34 51/124/34 53/125/34 55/126/34 57/127/34 59/128/34 61/129/34 63/130/34
f 111/163/35 109/164/35 100/165/35 99/166/35
f 99/166/36 100/165/36 104/26/36 103/42/36
f 116/167/37 114/168/37 102/169/37 101/170/37
f 101/170/38 102/169/38 98/25/38 97/41/38
f 101/170/38 97/41/38 118/41/38 122/170/38
f 111/177/34 110/178/34 107/179/34 105/180/34
f 110/178/37 112/173/37 108/176/37 107/179/37
f 113/181/35 115/182/35 106/183/35 105/184/35
f 103/42/37 104/26/37 112/173/37 110/178/37
f 113/185/36 116/167/36 124/167/36 117/185/36
f 105/184/35 106/183/35 109/164/35 111/163/35
f 97/186/35 98/187/35 115/182/35 113/181/35
f 108/176/31 106/175/31 115/171/31 114/168/31
f 105/180/34 107/179/34 116/167/34 113/185/34
f 107/179/37 108/176/37 114/168/37 116/167/37
f 117/185/34 124/167/34 122/170/34 118/188/34
f 120/58/34 119/42/34 121/178/34 123/177/34
f 99/166/36 103/42/36 119/42/36 120/166/36
f 111/163/35 99/166/35 120/166/35 123/163/35
f 97/186/35 113/181/35 117/181/35 118/186/35
f 116/167/37 101/170/37 122/170/37 124/167/37
f 103/42/37 110/178/37 121/178/37 119/42/37
f 110/178/38 111/177/38 123/177/38 121/178/38
f 139/163/35 137/164/35 128/165/35 127/166/35
f 127/166/36 128/165/36 132/26/36 131/42/36
f 144/167/37 142/168/37 130/169/37 129/170/37
f 129/170/38 130/169/38 126/25/38 125/41/38
f 129/170/38 125/41/38 146/41/38 150/170/38
f 139/177/34 138/178/34 135/179/34 133/180/34
f 138/178/37 140/173/37 136/176/37 135/179/37
f 141/181/35 143/182/35 134/183/35 133/184/35
f 131/42/37 132/26/37 140/173/37 138/178/37
f 141/185/36 144/167/36 152/167/36 145/185/36
f 133/184/35 134/183/35 137/164/35 139/163/35
f 125/186/35 126/187/35 143/182/35 141/181/35
f 133/180/34 135/179/34 144/167/34 141/185/34
f 135/179/37 136/176/37 142/168/37 144/167/37
f 145/185/34 152/167/34 150/170/34 146/188/34
f 148/58/34 147/42/34 149/178/34 151/177/34
f 127/166/36 131/42/36 147/42/36 148/166/36
f 139/163/35 127/166/35 148/166/35 151/163/35
f 125/186/35 141/181/35 145/181/35 146/186/35
f 144/167/37 129/170/37 150/170/37 152/167/37
f 131/42/37 138/178/37 149/178/37 147/42/37
f 138/178/38 139/177/38 151/177/38 149/178/38
